<svg xmlns="http://www.w3.org/2000/svg" viewBox="0 0 320 96" role="img" aria-label="RAMprep Ride Across America Preparation">
  <rect width="320" height="96" rx="18" fill="#f7f3e8"/>
  <svg x="18" y="14" width="68" height="68" viewBox="0 0 96 96" aria-hidden="true">
    <defs>
      <linearGradient id="ram-h-bg" x1="13" y1="10" x2="84" y2="87" gradientUnits="userSpaceOnUse">
        <stop offset="0" stop-color="#28575b"/>
        <stop offset=".52" stop-color="#17313d"/>
        <stop offset="1" stop-color="#10252c"/>
      </linearGradient>
      <linearGradient id="ram-h-route" x1="18" y1="70" x2="80" y2="42" gradientUnits="userSpaceOnUse">
        <stop offset="0" stop-color="#77a98c"/>
        <stop offset="1" stop-color="#d77844"/>
      </linearGradient>
    </defs>
    <rect x="5" y="5" width="86" height="86" rx="22" fill="url(#ram-h-bg)"/>
    <rect x="7.5" y="7.5" width="81" height="81" rx="19.5" fill="none" stroke="#f7f3e8" stroke-width="3" opacity=".78"/>
    <path d="M18 71c15-12 34-22 60-29" fill="none" stroke="url(#ram-h-route)" stroke-width="9" stroke-linecap="round"/>
    <path d="M20 76c16-12 35-20 58-27" fill="none" stroke="#f7f3e8" stroke-width="2.5" stroke-linecap="round" opacity=".72"/>
    <path d="M24 73V23h25.5c7 0 12.5 1.8 16.5 5.2 4 3.4 6.2 8.1 6.2 13.6 0 7.2-3.6 12.7-10.2 15.7L76 73H61.2L49.7 60.4H37.2V73H24Zm13.2-23.4h12.4c5.5 0 9-2.8 9-7.4 0-4.5-3.5-7.3-9-7.3H37.2v14.7Z" fill="#f7f3e8"/>
    <circle cx="78" cy="42" r="5.5" fill="#77a98c" stroke="#f7f3e8" stroke-width="3"/>
  </svg>
  <text x="104" y="43" fill="#17313d" font-family="Inter, system-ui, sans-serif" font-size="30" font-weight="850">RAM</text>
  <text x="172" y="43" fill="#28575b" font-family="Inter, system-ui, sans-serif" font-size="30" font-weight="700">prep</text>
  <text x="106" y="66" fill="#6f5f4e" font-family="Inter, system-ui, sans-serif" font-size="11" font-weight="750" letter-spacing=".8">RIDE ACROSS AMERICA PREPARATION</text>
</svg>
